<svg width="200" height="200" viewBox="0 0 200 200" fill="none" xmlns="http://www.w3.org/2000/svg">
<path d="M117.8 189.8C154.8 182.6 184.4 151 191 111.6L192.2 104H164.2H136.4L135 109.6C134.4 112.8 131.2 118.4 128 122.4C113 140.6 87 140.6 72 122.4C68.8 118.4 65.6 112.8 65 109.6L63.6 104H35.8L7.8 104L9 111.6C18 165 66.6 199.8 117.8 189.8Z" fill="white"/>
<path d="M191 88.6C184 47.2 154.6 17.2 114.2 10C65 1.2 17.8 36.4 9 88.6L7.8 96L35.6 96H63.6L65 90.6C70 70.2 96.2 58.2 115.2 67.2C123.6 71.2 133.4 82.6 135 90.4L136.4 96H164.2H192.2L191 88.6Z" fill="#D3D3D3"/>
<path d="M100 72C84.536 72 72 84.536 72 100C72 115.464 84.536 128 100 128C115.464 128 128 115.464 128 100C128 84.536 115.464 72 100 72Z" fill="white"/>
<path d="M100 116L102.82 113.18L91.66 102H116V98H91.66L102.82 86.82L100 84L84 100L100 116Z" fill="black"/>
</svg>
