<svg width="200" height="200" viewBox="0 0 200 200" fill="none" xmlns="http://www.w3.org/2000/svg">
<path d="M82.2 10.2C45.2 17.4 15.6 49 8.99999 88.4L7.79999 96H35.8H63.6L65 90.4C65.6 87.2 68.8 81.6 72 77.6C87 59.4 113 59.4 128 77.6C131.2 81.6 134.4 87.2 135 90.4L136.4 96H164.2H192.2L191 88.4C182 35 133.4 0.199992 82.2 10.2Z" fill="#D3D3D3"/>
<path d="M8.99999 111.4C16 152.8 45.4 182.8 85.8 190C135 198.8 182.2 163.6 191 111.4L192.2 104H164.4H136.4L135 109.4C130 129.8 103.8 141.8 84.8 132.8C76.4 128.8 66.6 117.4 65 109.6L63.6 104H35.8H7.79999L8.99999 111.4Z" fill="white"/>
<path d="M100 128C115.464 128 128 115.464 128 100C128 84.536 115.464 72 100 72C84.536 72 72 84.536 72 100C72 115.464 84.536 128 100 128Z" fill="white"/>
<path d="M100 84L97.18 86.82L108.34 98H84V102H108.34L97.18 113.18L100 116L116 100L100 84Z" fill="black"/>
</svg>
