<svg width="200" height="200" viewBox="0 0 200 200" fill="none" xmlns="http://www.w3.org/2000/svg">
<path d="M82.2 10.2C45.2 17.4 15.6 49 8.99999 88.4L7.79999 96H35.8H63.6L65 90.4C65.6 87.2 68.8 81.6 72 77.6C87 59.4 113 59.4 128 77.6C131.2 81.6 134.4 87.2 135 90.4L136.4 96H164.2H192.2L191 88.4C182 35 133.4 0.200006 82.2 10.2Z" fill="#D31313"/>
<path d="M8.99999 111.4C16 152.8 45.4 182.8 85.8 190C135 198.8 182.2 163.6 191 111.4L192.2 104H164.4H136.4L135 109.4C130 129.8 103.8 141.8 84.8 132.8C76.4 128.8 66.6 117.4 65 109.6L63.6 104H35.8H7.79999L8.99999 111.4Z" fill="white"/>
<circle cx="100" cy="100" r="28" fill="white"/>
<path d="M100 116L102.82 113.18L91.66 102H116V98H91.66L102.82 86.82L100 84L84 100L100 116Z" fill="black"/>
</svg>
